<svg xmlns="http://www.w3.org/2000/svg" width="1440" height="780">
<defs>
<linearGradient id="bg" x1="0" y1="0" x2="1" y2="1"><stop stop-color="#eefcf7"/><stop offset=".55" stop-color="#eef7ff"/><stop offset="1" stop-color="#fff3e7"/></linearGradient>
<linearGradient id="g" x1="0" y1="0" x2="1" y2="1"><stop stop-color="#2e9d78"/><stop offset="1" stop-color="#4c8fd6"/></linearGradient>
</defs>
<rect width="1440" height="780" rx="42" fill="url(#bg)"/>
<rect x="55" y="55" width="925" height="670" rx="34" fill="#fff" stroke="#dce8e7"/>
<text x="100" y="128" font-family="Arial" font-size="31" font-weight="700" fill="#24374a">Workplace Ergonomic Injury Risk Analyzer</text>
<text x="100" y="163" font-family="Arial" font-size="17" fill="#6b7c8e">Repetition • posture • workstation fit • shift duration • discomfort • workload context</text>
<rect x="100" y="212" width="240" height="145" rx="24" fill="#eef9f4"/>
<circle cx="220" cy="280" r="36" fill="url(#g)"/>
<path d="M220 246v72M186 270h68M194 300h52" stroke="#fff" stroke-width="9" stroke-linecap="round"/>
<text x="135" y="332" font-family="Arial" font-size="15" fill="#556b7e">Posture & task load</text>
<rect x="370" y="212" width="240" height="145" rx="24" fill="#eef7ff"/>
<circle cx="490" cy="280" r="36" fill="#4c8fd6"/>
<path d="M475 292c12-30 18-44 30-50M475 292c18 8 30 13 42 28" fill="none" stroke="#fff" stroke-width="9" stroke-linecap="round"/>
<text x="405" y="332" font-family="Arial" font-size="15" fill="#556b7e">Workstation fit</text>
<rect x="640" y="212" width="240" height="145" rx="24" fill="#fff5e9"/>
<circle cx="760" cy="280" r="36" fill="#e19a47"/>
<path d="M741 280h38M760 261v38" stroke="#fff" stroke-width="9" stroke-linecap="round"/>
<text x="675" y="332" font-family="Arial" font-size="15" fill="#556b7e">Reported discomfort</text>
<rect x="100" y="400" width="780" height="247" rx="27" fill="#f7fafc"/>
<text x="133" y="445" font-family="Arial" font-size="19" font-weight="700" fill="#24374a">Explainable screening layers</text>
<rect x="133" y="478" width="610" height="17" rx="8" fill="#e3e9ee"/>
<rect x="133" y="478" width="438" height="17" rx="8" fill="url(#g)"/>
<text x="133" y="527" font-family="Arial" font-size="15" fill="#67798b">Repetition and pacing • posture • manual handling • force</text>
<text x="133" y="558" font-family="Arial" font-size="15" fill="#67798b">Shift duration • missed breaks • reported discomfort • prior injury reports</text>
<text x="133" y="589" font-family="Arial" font-size="15" fill="#67798b">Monitor/chair/keyboard fit • reach • lighting • space • adjustability</text>
<rect x="1015" y="55" width="370" height="670" rx="34" fill="#fff" stroke="#e4e8ed"/>
<text x="1050" y="128" font-family="Arial" font-size="28" font-weight="700" fill="#24374a">Safety-review view</text>
<text x="1050" y="163" font-family="Arial" font-size="16" fill="#718092">Synthetic local demonstration</text>
<circle cx="1087" cy="250" r="27" fill="#d96278"/>
<path d="M1074 250h26M1087 237v26" stroke="#fff" stroke-width="7" stroke-linecap="round"/>
<text x="1130" y="245" font-family="Arial" font-size="15" font-weight="700" fill="#24374a">High review signal</text>
<text x="1130" y="268" font-family="Arial" font-size="13" fill="#6f7d8e">Consider ergonomic assessment</text>
<circle cx="1087" cy="342" r="27" fill="#43a77d"/>
<path d="M1074 342l9 10 19-23" fill="none" stroke="#fff" stroke-width="7" stroke-linecap="round" stroke-linejoin="round"/>
<text x="1130" y="337" font-family="Arial" font-size="15" font-weight="700" fill="#24374a">Review-ready context</text>
<text x="1130" y="360" font-family="Arial" font-size="13" fill="#6f7d8e">Use evidence with human review</text>
<circle cx="1087" cy="434" r="27" fill="#e19a47"/>
<path d="M1071 445h31M1079 424h16v21h-16z" fill="none" stroke="#fff" stroke-width="6"/>
<text x="1130" y="429" font-family="Arial" font-size="15" font-weight="700" fill="#24374a">Human-led action</text>
<text x="1130" y="452" font-family="Arial" font-size="13" fill="#6f7d8e">No automated employment decisions</text>
<rect x="1050" y="525" width="300" height="123" rx="22" fill="#f1fbf6"/>
<text x="1075" y="563" font-family="Arial" font-size="16" font-weight="700" fill="#24374a">Local-first</text>
<text x="1075" y="592" font-family="Arial" font-size="14" fill="#657688">No external APIs • local CSVs</text>
<text x="1075" y="619" font-family="Arial" font-size="14" fill="#657688">Planning aid • not injury diagnosis</text>
</svg>